<svg width="36" height="36" viewBox="0 0 36 36" fill="none" xmlns="http://www.w3.org/2000/svg">
<path fill-rule="evenodd" clip-rule="evenodd" d="M18 0C8.05888 0 0 8.05888 0 18C0 27.9411 8.05888 36 18 36C27.9411 36 36 27.9411 36 18C36 8.05888 27.9411 0 18 0ZM14.0425 8.45815C15.0665 8.41155 15.3937 8.40015 18.0009 8.40015H17.9979C20.606 8.40015 20.932 8.41155 21.956 8.45815C22.978 8.50495 23.676 8.66675 24.288 8.90415C24.92 9.14915 25.454 9.47716 25.988 10.0112C26.522 10.5448 26.85 11.0804 27.096 11.7118C27.332 12.3222 27.494 13.0198 27.542 14.0418C27.588 15.0658 27.6 15.393 27.6 18.0002C27.6 20.6075 27.588 20.9339 27.542 21.9579C27.494 22.9795 27.332 23.6773 27.096 24.2879C26.85 24.9191 26.522 25.4547 25.988 25.9883C25.4546 26.5223 24.9198 26.8511 24.2886 27.0963C23.6778 27.3337 22.9794 27.4955 21.9574 27.5423C20.9334 27.5889 20.6072 27.6003 17.9997 27.6003C15.3927 27.6003 15.0657 27.5889 14.0417 27.5423C13.0199 27.4955 12.3221 27.3337 11.7113 27.0963C11.0803 26.8511 10.5447 26.5223 10.0113 25.9883C9.47745 25.4547 9.14945 24.9191 8.90405 24.2877C8.66684 23.6773 8.50504 22.9797 8.45804 21.9577C8.41164 20.9337 8.40004 20.6075 8.40004 18.0002C8.40004 15.393 8.41204 15.0656 8.45784 14.0416C8.50384 13.02 8.66584 12.3222 8.90384 11.7116C9.14985 11.0804 9.47785 10.5448 10.0119 10.0112C10.5455 9.47736 11.0811 9.14935 11.7125 8.90415C12.3229 8.66675 13.0205 8.50495 14.0425 8.45815Z" fill="#555555"/>
<path fill-rule="evenodd" clip-rule="evenodd" d="M17.1398 10.1298C17.307 10.1296 17.4869 10.1297 17.6811 10.1297L18.001 10.1298C20.5642 10.1298 20.868 10.139 21.8803 10.185C22.8163 10.2278 23.3243 10.3842 23.6627 10.5156C24.1107 10.6896 24.4301 10.8976 24.7659 11.2337C25.1019 11.5697 25.3099 11.8897 25.4843 12.3377C25.6157 12.6757 25.7723 13.1837 25.8149 14.1197C25.8609 15.1317 25.8709 15.4357 25.8709 17.9977C25.8709 20.5598 25.8609 20.8638 25.8149 21.8758C25.7721 22.8118 25.6157 23.3198 25.4843 23.6578C25.3103 24.1058 25.1019 24.4248 24.7659 24.7606C24.4299 25.0966 24.1109 25.3046 23.6627 25.4786C23.3247 25.6106 22.8163 25.7666 21.8803 25.8094C20.8682 25.8554 20.5642 25.8654 18.001 25.8654C15.4376 25.8654 15.1338 25.8554 14.1218 25.8094C13.1858 25.7662 12.6778 25.6098 12.3392 25.4784C11.8912 25.3044 11.5712 25.0964 11.2351 24.7604C10.8991 24.4244 10.6911 24.1052 10.5167 23.657C10.3853 23.319 10.2287 22.811 10.1861 21.875C10.1401 20.863 10.1309 20.559 10.1309 17.9953C10.1309 15.4317 10.1401 15.1293 10.1861 14.1173C10.2289 13.1813 10.3853 12.6733 10.5167 12.3349C10.6907 11.8869 10.8991 11.5669 11.2351 11.2309C11.5712 10.8948 11.8912 10.6868 12.3392 10.5124C12.6776 10.3804 13.1858 10.2244 14.1218 10.1814C15.0074 10.1414 15.3506 10.1294 17.1398 10.1274V10.1298ZM23.1254 11.7241C22.4894 11.7241 21.9734 12.2395 21.9734 12.8757C21.9734 13.5117 22.4894 14.0277 23.1254 14.0277C23.7614 14.0277 24.2774 13.5117 24.2774 12.8757C24.2774 12.2397 23.7614 11.7237 23.1254 11.7237V11.7241ZM13.0709 17.9998C13.0709 15.2772 15.2784 13.0698 18.001 13.0698H18.0008C20.7234 13.0698 22.9302 15.2772 22.9302 17.9998C22.9302 20.7225 20.7236 22.9289 18.001 22.9289C15.2784 22.9289 13.0709 20.7225 13.0709 17.9998Z" fill="#555555"/>
<path fill-rule="evenodd" clip-rule="evenodd" d="M18.0009 14.8003C19.7681 14.8003 21.201 16.2329 21.201 18.0003C21.201 19.7675 19.7681 21.2004 18.0009 21.2004C16.2335 21.2004 14.8009 19.7675 14.8009 18.0003C14.8009 16.2329 16.2335 14.8003 18.0009 14.8003V14.8003Z" fill="#555555"/>
</svg>
