<svg id="Layer_1" data-name="Layer 1" xmlns="http://www.w3.org/2000/svg" viewBox="0 0 48 47.22"><defs><style>.cls-1{fill:#555;}</style></defs><title>youtube</title><path class="cls-1" d="M24,.22A23.81,23.81,0,0,0,0,23.83,23.81,23.81,0,0,0,24,47.44,23.81,23.81,0,0,0,48,23.83,23.81,23.81,0,0,0,24,.22ZM34,15.72A3.22,3.22,0,0,1,36.27,18a34,34,0,0,1,.53,6.22,34,34,0,0,1-.53,6.22A3.22,3.22,0,0,1,34,32.74c-2,.54-10,.54-10,.54s-8,0-10-.54a3.22,3.22,0,0,1-2.26-2.29,34,34,0,0,1-.53-6.22A34,34,0,0,1,11.74,18,3.22,3.22,0,0,1,14,15.72c2-.54,10-.54,10-.54S32,15.18,34,15.72Z" transform="translate(0 -0.22)"/><path class="cls-1" d="M21.6,28.56V20.69L28,24.62Z" transform="translate(0 -0.22)"/></svg>